/* XPM */
static char *_95211eb5724437095cccb040ae0bf58bSjxgn7HImPSDbD5[] = {
/* columns rows colors chars-per-pixel */
"128 128 62 1 ",
"  c black",
". c #070707",
"X c #090909",
"o c #0E0E0E",
"O c #131313",
"+ c #151515",
"@ c #1B1B1B",
"# c #1E1E1E",
"$ c #222222",
"% c #272727",
"& c gray16",
"* c #2D2D2D",
"= c gray19",
"- c #373737",
"; c gray22",
": c #3C3C3C",
"> c gray26",
", c gray27",
"< c gray29",
"1 c gray31",
"2 c #555555",
"3 c gray35",
"4 c #5D5D5D",
"5 c #626262",
"6 c gray40",
"7 c gray43",
"8 c #717171",
"9 c #747474",
"0 c #797979",
"q c gray49",
"w c #818181",
"e c #868686",
"r c #888888",
"t c #8D8D8D",
"y c #909090",
"u c #979797",
"i c #9A9A9A",
"p c gray62",
"a c gray64",
"s c gray65",
"d c #A9A9A9",
"f c #AEAEAE",
"g c #B2B2B2",
"h c #B4B4B4",
"j c gray72",
"k c gray",
"l c gray76",
"z c #C6C6C6",
"x c #C8C8C8",
"c c gray80",
"v c gray82",
"b c gray84",
"n c #D8D8D8",
"m c #DDDDDD",
"M c #E1E1E1",
"N c gray89",
"B c gray92",
"V c #EFEFEF",
"C c gray94",
"Z c #F4F4F4",
"A c gray99",
"S c white",
/* pixels */
"                                                                                                                                ",
"                                                                                                                                ",
"                                                                                                                                ",
"                                                                                                                                ",
"                                                                                                                                ",
"                                                                                                                                ",
"                                                                                                                                ",
"                                                                                                                                ",
"                                                                                                                                ",
"                                                                                                                                ",
"                                                                                                                                ",
"                                                                                                                                ",
"                                                                                                                                ",
"                                                                                                                                ",
"                #                                                                                                               ",
"               -SS                                                                                                              ",
"               0SSZ                                                                                                             ",
"               5SSSv                                                                                                            ",
"               3SSSSM                                                                                                           ",
"               2SSzSSf                                                                                                          ",
"               <SSSSVSj                                                                                                         ",
"               2SSgx%qSM                                                                                                        ",
"               2SS3  $SSf                                                                                                       ",
"               <SSZ  #SZSs                                                                                                      ",
"               ,SCjc&+Sa1Ss                                                                                                     ",
"               >S0*SeOSa 3Ss                                                                                                    ",
"               <S8$SeoSs  3Sg                                                                                                   ",
"               2Sk M: m1   7SM                                                                                                  ",
"               2SS;        .SSh                                                                                                 ",
"               <SSC        .SSSs                                                                                                ",
"               ,SScs#       Sl2Ss                                                                                               ",
"               >Sw=Se       Sz 3Ss                                                                                              ",
"               >S8$St       Sz  3Ss                                                                                             ",
"               >S9 S1 e$    Sl   3Sd                                                                                            ",
"               >S9 X +Si   .Sz    3Ss                                                                                           ",
"               >S9   #Sa    Sz     3Ss                                                                                          ",
"               >S9   @Sa    Sz      3Ss                                                                                         ",
"               >S9   @Sp    Sz       3Sd                                                                                        ",
"               ,S9   #Ss   .Sx        3Sd                                                                                       ",
"               1Sa   XS8    Zp         4Sm                                                                                      ",
"               3SSX   @     +.          VSk                                                                                     ",
"               1SSc                     nSSs                                                                                    ",
"               ,SSZ3.                   bS8Sd                                                                                   ",
"               ,Sp<S9                   bS 2Ss                                                                                  ",
"               >S8$St                   bS  3Ss                                                                                 ",
"               >S8XS7 ;X                nS   3Ss                                                                                ",
"               >S0 - oSe                bS    3Ss                                                                               ",
"               >S9   @Sa                bS     3Ss                                                                              ",
"               >S9   @Sp                nS      3Ss                                                                             ",
"               >S9   #Sa                bS       3Ss                                                                            ",
"               >S9   @Sa                nS        3Ss                                                                           ",
"               >S9   OSt    @X          bS         3Ss                                                                          ",
"               >S9    2+    Sa          nS          3Ss                                                                         ",
"               >S9         .Sx          bS           4Ss                                                                        ",
"               >S9          Sz          nS            3Ss                                                                       ",
"               >S9          Sl          bS             3Ss                                                                      ",
"               >S9          Sl          nS              4Ss                                                                     ",
"               >S9         .Sz          bS               3Ss                                                                    ",
"               >S9          Sl          bS                3Ss                                                                   ",
"               >S9          Sz          nS                 3Sd                                                                  ",
"               >S9          Sz          bS                  4Ss                                                                 ",
"               >S9          Sz          bS                   3Ss                                                                ",
"               >S9          Sz          nS                    4Ss                                                               ",
"               <Sq         .Sx          nS                     3Sj                                                              ",
"               2Sm          u1          3e                      tSM                                                             ",
"               2SS5                                             ;SSf                                                            ",
"               <SSS                                             =SBSs                                                           ",
"               ,SBdm;                                           =Sr1Ss                                                          ",
"               >S9%St                                           =Sr 4Ss                                                         ",
"               >S8#St                                           =Se  3Ss                                                        ",
"               >S9 v= z:                                        =Se   3Ss                                                       ",
"               >S9   @Sa                                        =Sr    4Ss                                                      ",
"               >S9   @Sa                                        =Se     3Ss                                                     ",
"               >S9   #Sp                                        =Sr      3Ss                                                    ",
"               >S9   @Sa                                        =Sr       3Sd                                                   ",
"               >S9   @Sa                                        =Sr        4Ss                                                  ",
"               >S9    B2    r<                                  =Se         3Ss                                                 ",
"               >S9          Sz                                  =Sr          3Ss                                                ",
"               >S9          Sz                                  =Se           3Ss                                               ",
"               >S9          Sz                                  =Sr            3Ss                                              ",
"               >S9          Sl                                  =Sr             3Ss                                             ",
"               >S9          Sz                                  =Se              3Ss                                            ",
"               >S9         .Sl                                  =Se               3Ss                                           ",
"               >S9          Sz                                  =Sr                3Ss                                          ",
"               >S9          Sz                                  =Se                 3Ss                                         ",
"               >S9          Sz                                  =Sr                  4Ss                                        ",
"               >S9          Sz                                  =Sr                   3Ss                                       ",
"               >S9         .Sz                                  =Se                    3Ss                                      ",
"               >S9          Ss          %:                      =Se                     4Ss                                     ",
"               >S9          #o          xS                      =Sr                      3Ss                                    ",
"               >S9                      nS                      =Se                       3Ss                                   ",
"               >S9                      nS                      =Sr                        3Sd                                  ",
"               >S9                      bS                      =Sr                         4Ss                                 ",
"               >S9                      nS                      =Se                          3Ss                                ",
"               >S9                      bS                      =Se                           4Ss                               ",
"               >S9                      bS                      =Sr                            3Ss                              ",
"               >S9                      nS                      =Se                             3Ss                             ",
"               >S9                      bS                      =Sr                              3Sd                            ",
"               >S9                      bS                      =Sr                               3Ss                           ",
"               >S9                      nS                      =Se                                3Ss                          ",
"               >S9                      bS                      =Se                                 3Ss                         ",
"               >S9                      bS                      =Sr                                  3Sd                        ",
"               >S9                      nS                      =Se                                   3Ss                       ",
"               >S9                      bS                      =Sr                                    3Ss                      ",
"               >S9                      bS                      =Sr                                     3Ss                     ",
"               >S9                      nS                      =Se                                      3Sd                    ",
"               >S9                      bS                      =Se                                       3Ss                   ",
"               >S9                      bS                      =Sr                                        3Ss                  ",
"               >S9                      nS                      =Se                                         3Ss                 ",
"               >S9                      bS                      =Sr                                          3Ss                ",
"               >S9                      bS                      =Sr                                           3Ss               ",
"               >S9                      nS                      =Se                                            4Sd              ",
"               >S8                      nS                      *Se                                             3Si             ",
"               Xl$                      6u                      .k&                                              2y             ",
"                                                                                                                                ",
"                                                                                                                                ",
"                                                                                                                                ",
"                                                                                                                                ",
"                                                                                                                                ",
"                                                                                                                                ",
"                                                                                                                                ",
"                                                                                                                                ",
"                                                                                                                                ",
"                                                                                                                                ",
"                                                                                                                                ",
"                                                                                                                                ",
"                                                                                                                                ",
"                                                                                                                                "
};
