/* XPM */
static char *fd25e126ad974a379e9048cbbdd79091EyqVzq9jVfBFPpyj[] = {
/* columns rows colors chars-per-pixel */
"32 32 2 1 ",
"  c gray14",
". c white",
/* pixels */
".                               ",
"..                              ",
". .                             ",
"....                            ",
".   .                           ",
"..  ..                          ",
". . . .                         ",
". . .  .                        ",
".       .                       ",
"..      ..                      ",
". .     . .                     ",
". .     .  .                    ",
".   .   .   .                   ",
".   .   .    .                  ",
".   .   .     .                 ",
".   .   .      .                ",
".               .               ",
"..              ..              ",
". .             . .             ",
". .             .  .            ",
".   .           .   .           ",
".   .           .    .          ",
".   .           .     .         ",
".   .           .      .        ",
".       .       .       .       ",
".       .       .        .      ",
".       .       .         .     ",
".       .       .          .    ",
".       .       .           .   ",
".       .       .            .  ",
".       .       .             . ",
".       .       .              ."
};
