/* XPM */
static char *cbb6cea87bbe4439bc029f9a44f62bebd3s9hKuM6yOo7gdu[] = {
/* columns rows colors chars-per-pixel */
"64 64 2 1 ",
"  c gray14",
". c white",
/* pixels */
".                                                               ",
"..                                                              ",
". .                                                             ",
"....                                                            ",
".   .                                                           ",
"..  ..                                                          ",
". . . .                                                         ",
". . .  .                                                        ",
".       .                                                       ",
"..      ..                                                      ",
". .     . .                                                     ",
". .     .  .                                                    ",
".   .   .   .                                                   ",
".   .   .    .                                                  ",
".   .   .     .                                                 ",
".   .   .      .                                                ",
".               .                                               ",
"..              ..                                              ",
". .             . .                                             ",
". .             .  .                                            ",
".   .           .   .                                           ",
".   .           .    .                                          ",
".   .           .     .                                         ",
".   .           .      .                                        ",
".       .       .       .                                       ",
".       .       .        .                                      ",
".       .       .         .                                     ",
".       .       .          .                                    ",
".       .       .           .                                   ",
".       .       .            .                                  ",
".       .       .             .                                 ",
".       .       .              .                                ",
".                               .                               ",
"..                              ..                              ",
". .                             . .                             ",
". .                             .  .                            ",
".   .                           .   .                           ",
".   .                           .    .                          ",
".   .                           .     .                         ",
".   .                           .      .                        ",
".       .                       .       .                       ",
".       .                       .        .                      ",
".       .                       .         .                     ",
".       .                       .          .                    ",
".       .                       .           .                   ",
".       .                       .            .                  ",
".       .                       .             .                 ",
".       .                       .              .                ",
".               .               .               .               ",
".               .               .                .              ",
".               .               .                 .             ",
".               .               .                  .            ",
".               .               .                   .           ",
".               .               .                    .          ",
".               .               .                     .         ",
".               .               .                      .        ",
".               .               .                       .       ",
".               .               .                        .      ",
".               .               .                         .     ",
".               .               .                          .    ",
".               .               .                           .   ",
".               .               .                            .  ",
".               .               .                             . ",
".               .               .                              ."
};
